<?xml version="1.0" standalone="no"?>
<!DOCTYPE svg PUBLIC "-//W3C//DTD SVG 20010904//EN"
 "http://www.w3.org/TR/2001/REC-SVG-20010904/DTD/svg10.dtd">
<svg version="1.0" xmlns="http://www.w3.org/2000/svg"
 width="512.000000pt" height="512.000000pt" viewBox="0 0 512.000000 512.000000"
 preserveAspectRatio="xMidYMid meet">
<metadata>
Created by potrace 1.14, written by Peter Selinger 2001-2017
</metadata>
<g transform="translate(0.000000,512.000000) scale(0.100000,-0.100000)"
fill="#000000" stroke="none">
<path d="M0 2560 l0 -2560 2560 0 2560 0 0 2560 0 2560 -2560 0 -2560 0 0
-2560z m2935 2051 c296 -52 563 -156 803 -315 93 -61 266 -200 306 -245 l20
-22 -114 -114 c-63 -63 -117 -115 -120 -115 -3 0 -41 32 -85 71 -229 200 -511
339 -817 401 -97 20 -143 23 -333 23 -189 0 -236 -3 -333 -23 -272 -55 -521
-169 -740 -339 -690 -536 -874 -1510 -427 -2261 253 -424 678 -726 1162 -823
138 -27 402 -37 552 -19 352 41 677 190 958 439 l92 81 118 -115 118 -115 -80
-76 c-546 -519 -1343 -695 -2065 -458 -319 105 -591 273 -830 513 -319 321
-520 727 -585 1183 -19 134 -19 422 0 556 65 456 266 862 585 1183 58 58 137
131 176 161 310 245 693 402 1089 448 128 14 412 4 550 -19z m-133 -826 c256
-44 474 -159 664 -349 244 -244 364 -533 364 -876 0 -343 -120 -632 -364 -876
-245 -245 -532 -364 -876 -364 -344 0 -631 119 -876 364 -245 245 -364 532
-364 876 0 344 119 631 364 876 188 188 405 303 661 349 98 18 324 18 427 0z"/>
<path d="M2465 3544 c-224 -36 -407 -126 -563 -278 -135 -131 -229 -294 -274
-472 -32 -127 -32 -341 0 -468 43 -171 129 -324 256 -454 131 -135 294 -229
472 -274 127 -32 341 -32 469 0 107 27 267 102 351 166 78 58 195 181 241 253
57 90 111 213 135 309 31 127 31 341 0 468 -42 170 -126 318 -254 452 -129
134 -295 231 -469 274 -82 21 -296 34 -364 24z"/>
</g>
</svg>
