<?xml version="1.0" encoding="utf-8"?>
<!-- Generator: Adobe Illustrator 26.2.1, SVG Export Plug-In . SVG Version: 6.00 Build 0)  -->
<svg version="1.1" id="Layer_1" xmlns="http://www.w3.org/2000/svg" xmlns:xlink="http://www.w3.org/1999/xlink" x="0px" y="0px"
	 viewBox="0 0 573.98 73.6" style="enable-background:new 0 0 573.98 73.6;" xml:space="preserve">
<style type="text/css">
	.st0{fill:#140F05;}
</style>
<path class="st0" d="M137.95,57.54c0,0-7.35-9.91-9.3-12.77c-3.26-4.59-4.49-6.43-7.35-9.38c2.86-1.74,11.03-6.64,11.03-16.74
	c0-7.86-5.1-13.99-11.74-16.53c-3.57-1.64-7.76-1.95-11.85-1.95H90.26c0,0,0.19,5.16,0.3,8.01c0.08,2.8,0.13,5.89,0.15,8.89v38.28
	c-0.03,3-0.08,6.08-0.15,8.89c-0.11,2.85-0.3,8.01-0.3,8.01h11.88v-0.01c0,0.01,0.01,0.01,0.01,0.01s-0.18-5.16-0.28-8.01
	c-0.31-9.81-0.15-23.23-0.15-23.23c2.04,0,3.67-0.1,5.41-0.31c1.73-0.3,1.94-0.3,2.55-0.3c2.66,0,3.27,0.61,5.82,4.18l4.9,6.74
	c6.32,9.18,10,14.38,14.28,17.55c3.78,2.76,9.08,4.59,13.37,4.59c1.63,0,3.07-0.3,4.8-0.61C146.21,68.15,143.35,64.77,137.95,57.54
	 M113.45,35.78c-4.49,2.36-8.68,2.25-11.74,2.25V3.42c0,0,8.29-1.6,15.42,5.52c3.02,3.01,4.59,7.86,4.59,12.96
	C121.71,24.66,121.41,31.69,113.45,35.78"/>
<path class="st0" d="M247.08,55.94V17.68c0.02-3,0.07-6.1,0.16-8.9c0.1-2.85,0.29-8.01,0.29-8.01h-11.89c0,0,0.19,5.16,0.28,8.01
	c0.1,2.8,0.15,5.91,0.17,8.9v38.26c-0.01,1.47-0.14,8.2-0.17,8.89c-0.09,2.85-0.28,8.01-0.28,8.01h11.89c0,0-0.19-5.16-0.29-8.01
	C247.22,64.13,247.08,57.41,247.08,55.94"/>
<path class="st0" d="M299.84,8.77c0.04-1.19,0.1-2.78,0.15-4.22h16.4c4.44,0,7.65,0.66,7.65,0.66l-0.44-4.45h-58.84l-0.44,4.45
	c0,0,3.22-0.66,7.65-0.66h16.4c0.05,1.44,0.11,3.04,0.15,4.22c0.09,2.8,0.14,5.91,0.17,8.9v38.26c-0.02,1.47-0.15,8.24-0.17,8.89
	c-0.1,2.85-0.29,8.01-0.29,8.01h11.9c0,0-0.2-5.16-0.3-8.01c-0.02-0.58-0.15-7.42-0.16-8.89V17.68
	C299.71,14.68,299.76,11.57,299.84,8.77"/>
<path class="st0" d="M468.12,8.01c0.11-2.85,0.3-8.01,0.3-8.01h-5.5c0,0,0.2,5.16,0.28,8.01c0.09,2.8,0.14,5.91,0.17,8.9V43.9
	c-0.41,5.86-0.75,10.62-2.74,14.6c-1.84,3.67-4.69,6.74-8.25,8.68c-3.08,1.74-6.64,2.44-10.31,2.44c-9.91,0-17.27-4.79-20.52-13.88
	c-1.2-3.4-1.27-7.11-1.44-11.97V16.91c0.03-3,0.08-6.1,0.17-8.9c0.11-2.85,0.28-8.01,0.28-8.01h-12.48c0,0,0.18,5.16,0.3,8.01
	c0.09,2.8,0.13,5.91,0.16,8.9c0,0,0.01,27.04,0.01,27.19c0,6.23,0.54,21.03,16.56,27.26c2.77,1.13,7.15,2.25,13.48,2.25
	c8.25,0,16.74-2.46,22.16-8.68c6.22-7.15,6.91-16.62,7.15-24.29l0.06-23.72C467.99,13.92,468.04,10.81,468.12,8.01"/>
<path class="st0" d="M215.89,8.01c0.11-2.85,0.3-8.01,0.3-8.01h-5.5c0,0,0.2,5.16,0.28,8.01c0.09,2.8,0.14,5.91,0.17,8.9V43.9
	c-0.41,5.86-0.75,10.62-2.74,14.6c-1.84,3.67-4.69,6.74-8.25,8.68c-3.08,1.74-6.64,2.44-10.31,2.44c-9.91,0-17.27-4.79-20.52-13.88
	c-1.2-3.4-1.27-7.11-1.44-11.97V16.91c0.03-3,0.08-6.1,0.17-8.9c0.11-2.85,0.28-8.01,0.28-8.01h-12.48c0,0,0.18,5.16,0.3,8.01
	c0.09,2.8,0.13,5.91,0.16,8.9c0,0,0.01,27.04,0.01,27.19c0,6.23,0.54,21.03,16.56,27.26c2.77,1.13,7.15,2.25,13.48,2.25
	c8.25,0,16.74-2.46,22.16-8.68c6.22-7.15,6.91-16.62,7.15-24.29l0.06-23.72C215.76,13.92,215.81,10.81,215.89,8.01"/>
<path class="st0" d="M39.35,0.26c1.12,2.46,19.63,44.06,19.63,44.06c9.65,20.39,11.5,23.17,19.05,28.58
	c-4.11,0.97-10.09,0.42-14.94-2.52c-4.71-2.85-8.23-10.36-11.13-16.42l-4.26-9.48l-28.84,0.03L6.05,72.52L0,72.46
	c0,0,1.54-2.01,2.56-3.86c3.35-6.03,21.33-43.62,24.99-52.15c1.83-4.08,6.09-16.18,6.09-16.18L39.35,0.26z M46.05,40.71
	c0,0-10.54-24.16-12.58-28.15C30.91,18.58,20.6,40.74,20.6,40.74L46.05,40.71z"/>
<path class="st0" d="M359.1,0.26c1.13,2.46,19.65,44.06,19.65,44.06c9.65,20.39,11.5,23.17,19.06,28.58
	c-4.13,0.97-10.1,0.42-14.95-2.52c-4.71-2.85-8.22-10.36-11.14-16.42l-4.25-9.48l-28.85,0.03l-12.81,28.01l-6.05-0.06
	c0,0,1.54-2.01,2.57-3.86c3.33-6.03,21.31-43.62,24.97-52.15c1.84-4.08,6.09-16.18,6.09-16.18L359.1,0.26z M365.82,40.71
	c0,0-10.54-24.16-12.6-28.15c-2.54,6.02-12.85,28.17-12.85,28.17L365.82,40.71z"/>
<path class="st0" d="M573.07,64.83c-0.06-0.69-0.71-7.42-0.82-8.89l-2.91-38.26c-0.2-3-0.37-6.1-0.49-8.9
	c-0.13-2.85-0.33-8.01-0.33-8.01h-11.28c0,0,0.34,3.58-0.34,5.16c-0.65,1.6-25.01,56.43-25.01,56.43L504.58,0.76h-8.76
	c0,0-0.2,5.16-0.31,8.01c-0.13,2.8-0.31,5.91-0.52,8.9c0,0-3.43,44.21-3.5,44.9c0,0.04,0,0.1-0.01,0.16
	c-0.06,0.71-0.14,1.4-0.21,2.09c-0.33,2.85-1.2,8.01-1.2,8.01h5.33c0,0,0.18-5.16,0.3-8.01c0.04-0.69,0.07-1.38,0.11-2.09
	c0-0.06,0-0.11,0-0.16c0.04-0.69,3.29-44.9,3.29-44.9c0.13-1.41,0.27-2.84,0.38-4.25c3.59,8.12,26.22,59.35,26.22,59.35h6.02
	l26.76-60.84c0,0,0.4,4.27,0.51,5.75l2.91,38.26c0.1,1.47,0.47,8.22,0.51,8.89c0.11,2.85,0.3,8.01,0.3,8.01h11.29
	C573.98,72.84,573.41,67.68,573.07,64.83"/>
</svg>
